<svg width="70" height="70" viewBox="0 0 70 70" fill="none" xmlns="http://www.w3.org/2000/svg">
<circle cx="35" cy="35" r="35" fill="white" fill-opacity="0.5"/>
<g filter="url(#filter0_d)">
<path d="M29.8921 42.6645V40.8434C29.8921 39.2684 30.2284 37.8984 30.9011 36.7336C31.5737 35.5688 32.8042 34.3301 34.5925 33.0176C36.3151 31.7871 37.4472 30.7863 37.9886 30.0152C38.5464 29.2442 38.8253 28.3828 38.8253 27.4313C38.8253 26.3649 38.4315 25.5527 37.644 24.9949C36.8565 24.4371 35.7573 24.1582 34.3464 24.1582C31.8854 24.1582 29.08 24.9621 25.93 26.5699L23.2476 21.1805C26.9062 19.1297 30.7862 18.1043 34.8878 18.1043C38.2675 18.1043 40.9499 18.9164 42.9351 20.5406C44.9366 22.1649 45.9374 24.3305 45.9374 27.0375C45.9374 28.8422 45.5272 30.4008 44.7069 31.7133C43.8866 33.0258 42.328 34.5024 40.0312 36.143C38.4562 37.3078 37.4554 38.1938 37.0288 38.8008C36.6187 39.4078 36.4136 40.2035 36.4136 41.1879V42.6645H29.8921ZM29.1046 51.0809C29.1046 49.7027 29.4737 48.6609 30.212 47.9555C30.9503 47.25 32.0249 46.8973 33.4358 46.8973C34.7976 46.8973 35.8476 47.2582 36.5858 47.9801C37.3405 48.702 37.7179 49.7356 37.7179 51.0809C37.7179 52.377 37.3405 53.4024 36.5858 54.157C35.8312 54.8953 34.7812 55.2645 33.4358 55.2645C32.0577 55.2645 30.9913 54.9035 30.2366 54.1817C29.4819 53.4434 29.1046 52.4098 29.1046 51.0809Z" fill="white"/>
</g>
<defs>
<filter id="filter0_d" x="19.2476" y="18.1043" width="30.6898" height="45.1602" filterUnits="userSpaceOnUse" color-interpolation-filters="sRGB">
<feFlood flood-opacity="0" result="BackgroundImageFix"/>
<feColorMatrix in="SourceAlpha" type="matrix" values="0 0 0 0 0 0 0 0 0 0 0 0 0 0 0 0 0 0 127 0"/>
<feOffset dy="4"/>
<feGaussianBlur stdDeviation="2"/>
<feColorMatrix type="matrix" values="0 0 0 0 0 0 0 0 0 0 0 0 0 0 0 0 0 0 0.25 0"/>
<feBlend mode="normal" in2="BackgroundImageFix" result="effect1_dropShadow"/>
<feBlend mode="normal" in="SourceGraphic" in2="effect1_dropShadow" result="shape"/>
</filter>
</defs>
</svg>
