<svg width="377" height="123" viewBox="0 0 377 123" fill="none" xmlns="http://www.w3.org/2000/svg">
<path d="M16.5742 100.672V114.72C16.5742 117.054 15.8418 118.899 14.377 120.257C12.9219 121.614 10.9297 122.293 8.40039 122.293C5.91016 122.293 3.93262 121.634 2.46777 120.315C1.00293 118.997 0.255859 117.186 0.226562 114.881V100.672H4.62109V114.749C4.62109 116.146 4.95312 117.166 5.61719 117.811C6.29102 118.445 7.21875 118.763 8.40039 118.763C10.8711 118.763 12.126 117.464 12.165 114.866V100.672H16.5742Z" fill="white"/>
<path d="M38.5762 122H34.1816L25.627 107.967V122H21.2324V100.672H25.627L34.1963 114.734V100.672H38.5762V122Z" fill="white"/>
<path d="M48.1416 122H43.7471V100.672H48.1416V122Z" fill="white"/>
<path d="M61.1641 116.712L65.998 100.672H70.8906L63.4639 122H58.8789L51.4814 100.672H56.3594L61.1641 116.712Z" fill="white"/>
<path d="M86.7988 112.757H78.3613V118.47H88.2637V122H73.9668V100.672H88.2344V104.231H78.3613V109.314H86.7988V112.757Z" fill="white"/>
<path d="M99.792 114.192H96.291V122H91.8965V100.672H99.8213C102.341 100.672 104.284 101.233 105.651 102.356C107.019 103.479 107.702 105.066 107.702 107.117C107.702 108.572 107.385 109.788 106.75 110.765C106.125 111.731 105.173 112.503 103.894 113.079L108.508 121.795V122H103.791L99.792 114.192ZM96.291 110.633H99.8359C100.939 110.633 101.794 110.354 102.399 109.798C103.005 109.231 103.308 108.455 103.308 107.469C103.308 106.463 103.02 105.672 102.443 105.096C101.877 104.52 101.003 104.231 99.8213 104.231H96.291V110.633Z" fill="white"/>
<path d="M123.171 116.404C123.171 115.574 122.878 114.939 122.292 114.5C121.706 114.051 120.651 113.582 119.128 113.094C117.604 112.596 116.398 112.107 115.51 111.629C113.088 110.32 111.877 108.558 111.877 106.341C111.877 105.188 112.199 104.163 112.844 103.265C113.498 102.356 114.431 101.648 115.642 101.141C116.862 100.633 118.229 100.379 119.743 100.379C121.267 100.379 122.624 100.657 123.815 101.214C125.007 101.761 125.93 102.537 126.584 103.543C127.248 104.549 127.58 105.691 127.58 106.971H123.186C123.186 105.994 122.878 105.237 122.263 104.7C121.647 104.153 120.783 103.88 119.67 103.88C118.596 103.88 117.761 104.109 117.165 104.568C116.569 105.018 116.271 105.613 116.271 106.355C116.271 107.049 116.618 107.63 117.312 108.099C118.015 108.567 119.045 109.007 120.402 109.417C122.902 110.169 124.724 111.102 125.866 112.215C127.009 113.328 127.58 114.715 127.58 116.375C127.58 118.221 126.882 119.671 125.485 120.726C124.089 121.771 122.209 122.293 119.846 122.293C118.205 122.293 116.711 121.995 115.363 121.399C114.016 120.794 112.985 119.969 112.272 118.924C111.569 117.879 111.218 116.668 111.218 115.291H115.627C115.627 117.645 117.033 118.821 119.846 118.821C120.891 118.821 121.706 118.611 122.292 118.191C122.878 117.762 123.171 117.166 123.171 116.404Z" fill="white"/>
<path d="M136.296 122H131.901V100.672H136.296V122Z" fill="white"/>
<path d="M157.492 104.231H150.959V122H146.564V104.231H140.119V100.672H157.492V104.231Z" fill="white"/>
<path d="M173.107 117.605H165.402L163.938 122H159.265L167.204 100.672H171.276L179.26 122H174.587L173.107 117.605ZM166.589 114.046H171.921L169.24 106.062L166.589 114.046Z" fill="white"/>
<path d="M193.366 116.404C193.366 115.574 193.073 114.939 192.487 114.5C191.901 114.051 190.847 113.582 189.323 113.094C187.8 112.596 186.594 112.107 185.705 111.629C183.283 110.32 182.072 108.558 182.072 106.341C182.072 105.188 182.395 104.163 183.039 103.265C183.693 102.356 184.626 101.648 185.837 101.141C187.058 100.633 188.425 100.379 189.938 100.379C191.462 100.379 192.819 100.657 194.011 101.214C195.202 101.761 196.125 102.537 196.779 103.543C197.443 104.549 197.775 105.691 197.775 106.971H193.381C193.381 105.994 193.073 105.237 192.458 104.7C191.843 104.153 190.979 103.88 189.865 103.88C188.791 103.88 187.956 104.109 187.36 104.568C186.765 105.018 186.467 105.613 186.467 106.355C186.467 107.049 186.813 107.63 187.507 108.099C188.21 108.567 189.24 109.007 190.598 109.417C193.098 110.169 194.919 111.102 196.062 112.215C197.204 113.328 197.775 114.715 197.775 116.375C197.775 118.221 197.077 119.671 195.681 120.726C194.284 121.771 192.404 122.293 190.041 122.293C188.4 122.293 186.906 121.995 185.559 121.399C184.211 120.794 183.181 119.969 182.468 118.924C181.765 117.879 181.413 116.668 181.413 115.291H185.822C185.822 117.645 187.229 118.821 190.041 118.821C191.086 118.821 191.901 118.611 192.487 118.191C193.073 117.762 193.366 117.166 193.366 116.404Z" fill="white"/>
<path d="M213.684 114.485V122H209.289V100.672H217.609C219.211 100.672 220.617 100.965 221.828 101.551C223.049 102.137 223.986 102.972 224.641 104.056C225.295 105.13 225.622 106.355 225.622 107.732C225.622 109.822 224.904 111.473 223.469 112.684C222.043 113.885 220.065 114.485 217.536 114.485H213.684ZM213.684 110.926H217.609C218.771 110.926 219.655 110.652 220.261 110.105C220.876 109.559 221.184 108.777 221.184 107.762C221.184 106.717 220.876 105.872 220.261 105.228C219.646 104.583 218.796 104.251 217.712 104.231H213.684V110.926Z" fill="white"/>
<path d="M241.75 117.605H234.045L232.58 122H227.907L235.847 100.672H239.919L247.902 122H243.229L241.75 117.605ZM235.231 114.046H240.563L237.883 106.062L235.231 114.046Z" fill="white"/>
<path d="M256.691 100.672L262.17 116.141L267.619 100.672H273.391V122H268.981V116.17L269.421 106.106L263.664 122H260.646L254.904 106.121L255.344 116.17V122H250.949V100.672H256.691Z" fill="white"/>
<path d="M294.426 100.672V114.72C294.426 117.054 293.693 118.899 292.229 120.257C290.773 121.614 288.781 122.293 286.252 122.293C283.762 122.293 281.784 121.634 280.319 120.315C278.854 118.997 278.107 117.186 278.078 114.881V100.672H282.473V114.749C282.473 116.146 282.805 117.166 283.469 117.811C284.143 118.445 285.07 118.763 286.252 118.763C288.723 118.763 289.978 117.464 290.017 114.866V100.672H294.426Z" fill="white"/>
<path d="M303.479 118.47H312.81V122H299.084V100.672H303.479V118.47Z" fill="white"/>
<path d="M328.439 117.605H320.734L319.27 122H314.597L322.536 100.672H326.608L334.592 122H329.919L328.439 117.605ZM321.921 114.046H327.253L324.572 106.062L321.921 114.046Z" fill="white"/>
<path d="M354.982 122H350.588L342.033 107.967V122H337.639V100.672H342.033L350.603 114.734V100.672H354.982V122Z" fill="white"/>
<path d="M376.75 119.305C375.959 120.252 374.841 120.989 373.396 121.517C371.95 122.034 370.349 122.293 368.591 122.293C366.745 122.293 365.124 121.893 363.728 121.092C362.341 120.281 361.267 119.109 360.505 117.576C359.753 116.043 359.367 114.241 359.348 112.171V110.721C359.348 108.592 359.704 106.751 360.417 105.198C361.14 103.636 362.175 102.444 363.522 101.624C364.88 100.794 366.467 100.379 368.283 100.379C370.812 100.379 372.79 100.984 374.216 102.195C375.642 103.396 376.486 105.149 376.75 107.454H372.473C372.277 106.233 371.843 105.34 371.169 104.773C370.505 104.207 369.587 103.924 368.415 103.924C366.921 103.924 365.783 104.485 365.002 105.608C364.221 106.731 363.825 108.401 363.815 110.618V111.98C363.815 114.217 364.24 115.906 365.09 117.049C365.939 118.191 367.185 118.763 368.825 118.763C370.476 118.763 371.652 118.411 372.355 117.708V114.031H368.356V110.794H376.75V119.305Z" fill="white"/>
<path fill-rule="evenodd" clip-rule="evenodd" d="M167.5 29.9688V0H158.094V30.2812C158.01 35.8229 155.333 38.5938 150.062 38.5938C147.542 38.5938 145.562 37.9167 144.125 36.5625C142.708 35.1875 142 33.0104 142 30.0312V0H132.625V30.3125C132.688 35.2292 134.281 39.0938 137.406 41.9062C140.531 44.7188 144.75 46.125 150.062 46.125C155.458 46.125 159.708 44.6771 162.812 41.7812C165.938 38.8854 167.5 34.9479 167.5 29.9688ZM184.562 45.5V29.4688H192.781C198.177 29.4688 202.396 28.1875 205.438 25.625C208.5 23.0417 210.031 19.5208 210.031 15.0625C210.031 12.125 209.333 9.51042 207.938 7.21875C206.542 4.90625 204.542 3.125 201.938 1.875C199.354 0.625 196.354 0 192.938 0H175.188V45.5H184.562ZM192.938 21.875H184.562V7.59375H193.156C195.469 7.63542 197.281 8.34375 198.594 9.71875C199.906 11.0938 200.562 12.8958 200.562 15.125C200.562 17.2917 199.906 18.9583 198.594 20.125C197.302 21.2917 195.417 21.875 192.938 21.875ZM212.469 52.5625H240.938V45.5H212.469V52.5625ZM246 56.5H131V61.5H246V56.5Z" fill="white"/>
</svg>
